<svg width="1000" height="1000" viewBox="0 0 1000 1000" fill="none" xmlns="http://www.w3.org/2000/svg">
<g clip-path="url(#clip0_35_2)">
<rect width="1000" height="1000" rx="200" fill="white"/>
<path d="M500 100C720.914 100 900 279.086 900 500C900 720.914 720.914 900 500 900H233.445C226.645 900 219.963 899.489 213.437 898.508C304.96 834.221 392.661 736.184 460.394 613.937L506.869 660.412C528.642 682.185 565.821 672.223 573.791 642.48L635.271 413.036C643.24 383.293 616.023 356.076 586.28 364.046L356.836 425.525C327.093 433.495 317.131 470.674 338.904 492.447L386.918 540.461C345.627 574.719 299.537 606.757 249.289 635.424C199.868 663.619 149.687 686.694 100 704.677V233.444C100 159.745 159.746 100 233.445 100H500Z" fill="#27272A"/>
</g>
<defs>
<clipPath id="clip0_35_2">
<rect width="1000" height="1000" fill="white"/>
</clipPath>
</defs>
</svg>
